<svg xmlns="http://www.w3.org/2000/svg" viewBox="0 0 1000 500" width="100%" height="500">
<style>svg { background-color: #0d1117; font-family: -apple-system, BlinkMacSystemFont, "Segoe UI", Roboto, Helvetica, Arial, sans-serif; }text { fill: #c9d1d9; }.chart-title { fill: #f0f6fc; font-size: 20px; font-weight: 700; letter-spacing: -0.2px; }.chart-subtitle { fill: #8b949e; font-size: 14px; font-weight: 400; }.axis-line { stroke: #30363d; stroke-width: 1.5; }.grid-line { stroke: #21262d; stroke-dasharray: 4,4; stroke-width: 1; }.axis-label { fill: #8b949e; font-size: 13px; }.svg-value { fill: #f0f6fc; font-size: 13px; font-weight: 700; }.legend-text { fill: #c9d1d9; font-size: 13px; font-weight: 600; }</style>
<text x="20" y="38" class="chart-title">Writer Insertion Throughput</text>
<text x="20" y="62" class="chart-subtitle">Insertion rate across database sizes (higher is better)</text>
<line x1="85" y1="430" x2="830" y2="430" class="axis-line"/>
<line x1="85" y1="85" x2="85" y2="430" class="axis-line"/>
<line x1="85" y1="430" x2="830" y2="430" class="grid-line"/>
<text x="75" y="434" class="axis-label" text-anchor="end">0.0 K ops/s</text>
<line x1="85" y1="361" x2="830" y2="361" class="grid-line"/>
<text x="75" y="365" class="axis-label" text-anchor="end">254.3 K ops/s</text>
<line x1="85" y1="292" x2="830" y2="292" class="grid-line"/>
<text x="75" y="296" class="axis-label" text-anchor="end">508.6 K ops/s</text>
<line x1="85" y1="223" x2="830" y2="223" class="grid-line"/>
<text x="75" y="227" class="axis-label" text-anchor="end">762.9 K ops/s</text>
<line x1="85" y1="154" x2="830" y2="154" class="grid-line"/>
<text x="75" y="158" class="axis-label" text-anchor="end">1017.2 K ops/s</text>
<line x1="85" y1="85" x2="830" y2="85" class="grid-line"/>
<text x="75" y="89" class="axis-label" text-anchor="end">1271.5 K ops/s</text>
<text x="85" y="455" class="axis-label" text-anchor="middle">1K</text>
<text x="191" y="455" class="axis-label" text-anchor="middle">10K</text>
<text x="297" y="455" class="axis-label" text-anchor="middle">100K</text>
<text x="404" y="455" class="axis-label" text-anchor="middle">500K</text>
<text x="510" y="455" class="axis-label" text-anchor="middle">1M</text>
<text x="617" y="455" class="axis-label" text-anchor="middle">1.5M</text>
<text x="723" y="455" class="axis-label" text-anchor="middle">2M</text>
<text x="830" y="455" class="axis-label" text-anchor="middle">5M</text>
<polyline points="85,378 191,100 297,85 404,137 510,158 617,155 723,159 830,183" fill="none" stroke="#00f5a0" stroke-width="2.5" stroke-linejoin="round"/>
<circle class="" cx="85" cy="378" r="4" fill="#00f5a0" style="cursor:pointer;"><title>libmaxminddb-rs: 192.56 K ops/s @ 1K</title></circle>
<circle class="" cx="191" cy="100" r="4" fill="#00f5a0" style="cursor:pointer;"><title>libmaxminddb-rs: 1216.13 K ops/s @ 10K</title></circle>
<circle class="" cx="297" cy="85" r="4" fill="#00f5a0" style="cursor:pointer;"><title>libmaxminddb-rs: 1271.51 K ops/s @ 100K</title></circle>
<circle class="" cx="404" cy="137" r="4" fill="#00f5a0" style="cursor:pointer;"><title>libmaxminddb-rs: 1079.83 K ops/s @ 500K</title></circle>
<circle class="" cx="510" cy="158" r="4" fill="#00f5a0" style="cursor:pointer;"><title>libmaxminddb-rs: 1002.12 K ops/s @ 1M</title></circle>
<circle class="" cx="617" cy="155" r="4" fill="#00f5a0" style="cursor:pointer;"><title>libmaxminddb-rs: 1014.24 K ops/s @ 1.5M</title></circle>
<circle class="" cx="723" cy="159" r="4" fill="#00f5a0" style="cursor:pointer;"><title>libmaxminddb-rs: 999.84 K ops/s @ 2M</title></circle>
<circle class="" cx="830" cy="183" r="4" fill="#00f5a0" style="cursor:pointer;"><title>libmaxminddb-rs: 908.66 K ops/s @ 5M</title></circle>
<circle class="" cx="850" cy="105" r="5" fill="#00f5a0"/>
<text x="862" y="109" class="legend-text">libmaxminddb-rs</text>
<polyline points="85,386 191,384 297,390 404,397 510,394 617,389 723,382 830,345" fill="none" stroke="#a06ee1" stroke-width="2.5" stroke-linejoin="round"/>
<circle class="" cx="85" cy="386" r="4" fill="#a06ee1" style="cursor:pointer;"><title>mmdbwriter: 163.18 K ops/s @ 1K</title></circle>
<circle class="" cx="191" cy="384" r="4" fill="#a06ee1" style="cursor:pointer;"><title>mmdbwriter: 168.89 K ops/s @ 10K</title></circle>
<circle class="" cx="297" cy="390" r="4" fill="#a06ee1" style="cursor:pointer;"><title>mmdbwriter: 146.42 K ops/s @ 100K</title></circle>
<circle class="" cx="404" cy="397" r="4" fill="#a06ee1" style="cursor:pointer;"><title>mmdbwriter: 120.77 K ops/s @ 500K</title></circle>
<circle class="" cx="510" cy="394" r="4" fill="#a06ee1" style="cursor:pointer;"><title>mmdbwriter: 130.90 K ops/s @ 1M</title></circle>
<circle class="" cx="617" cy="389" r="4" fill="#a06ee1" style="cursor:pointer;"><title>mmdbwriter: 152.58 K ops/s @ 1.5M</title></circle>
<circle class="" cx="723" cy="382" r="4" fill="#a06ee1" style="cursor:pointer;"><title>mmdbwriter: 177.98 K ops/s @ 2M</title></circle>
<circle class="" cx="830" cy="345" r="4" fill="#a06ee1" style="cursor:pointer;"><title>mmdbwriter: 313.48 K ops/s @ 5M</title></circle>
<circle class="" cx="850" cy="129" r="5" fill="#a06ee1"/>
<text x="862" y="133" class="legend-text">mmdbwriter</text>
</svg>